<svg xmlns="http://www.w3.org/2000/svg" viewBox="0 0 512 512">
  <defs>
    <linearGradient id="bg" x1="0%" y1="0%" x2="100%" y2="100%">
      <stop offset="0%" style="stop-color:#18181b"/>
      <stop offset="100%" style="stop-color:#27272a"/>
    </linearGradient>
  </defs>
  <!-- Background -->
  <rect width="512" height="512" rx="96" fill="url(#bg)"/>
  <!-- Wallet/Receipt Icon -->
  <g transform="translate(96, 96)">
    <!-- Main wallet body -->
    <rect x="40" y="80" width="240" height="180" rx="20" fill="#fafafa" opacity="0.95"/>
    <!-- Wallet flap -->
    <path d="M40 120 L40 100 Q40 80 60 80 L260 80 Q280 80 280 100 L280 120 Q240 140 160 140 Q80 140 40 120Z" fill="#e4e4e7"/>
    <!-- Card lines -->
    <rect x="70" y="130" width="100" height="8" rx="4" fill="#a1a1aa"/>
    <rect x="70" y="150" width="70" height="8" rx="4" fill="#d4d4d8"/>
    <!-- Amount display -->
    <text x="160" y="210" font-family="system-ui, -apple-system, sans-serif" font-size="48" font-weight="600" fill="#18181b" text-anchor="middle">$</text>
    <!-- Sparkle/AI indicator -->
    <circle cx="260" cy="60" r="24" fill="#fafafa"/>
    <path d="M260 44 L263 56 L275 56 L265 64 L268 76 L260 68 L252 76 L255 64 L245 56 L257 56Z" fill="#18181b"/>
  </g>
</svg>
